<?xml version="1.0" encoding="utf-8"?>
<!-- Generator: Adobe Illustrator 27.8.1, SVG Export Plug-In . SVG Version: 6.00 Build 0)  -->
<svg version="1.1" id="Layer_1" xmlns="http://www.w3.org/2000/svg" xmlns:xlink="http://www.w3.org/1999/xlink" x="0px" y="0px"
	 viewBox="0 0 900 250.5" style="enable-background:new 0 0 900 250.5;" xml:space="preserve">
<style type="text/css">
	.st0{fill:#231F20;}
	.st1{fill:url(#SVGID_1_);}
	.st2{enable-background:new    ;}
	.st3{fill:#FF8A3F;}
</style>
<g>
	<path class="st0" d="M335.9,174.6c-29.3,0-43.9-15.7-43.9-47c0-15.7,3.8-27.4,11.5-35.2c7.7-7.9,18.5-11.8,32.4-11.8
		c7.7,0,14.6,1.3,20.7,4c6.2,2.6,11,6.5,14.6,11.9c3.6,5.3,5.4,11.8,5.4,19.5h-19.7c0-5.9-1.9-10.5-5.7-13.9
		c-3.8-3.4-8.7-5.2-14.8-5.2c-8.3,0-14.5,2.5-18.5,7.4c-4.1,4.9-6.1,12-6.1,21.3v4c0,19.2,8.2,28.7,24.6,28.7c6.4,0,11.6-1.7,15.4-5
		c3.9-3.4,5.8-8,5.8-13.9h19.1c0,7.8-1.8,14.3-5.3,19.6c-3.5,5.2-8.3,9.1-14.4,11.8C350.8,173.4,343.8,174.6,335.9,174.6z
		 M388.7,77.3h18.1v34.2h0.9c5.3-6.4,12.1-9.7,20.4-9.7c7.1,0,12.8,1.9,16.8,5.8c4.1,3.9,6.2,10.1,6.2,18.7V173H433v-42.9
		c0-4.3-1-7.5-3-9.4s-5-2.9-9-2.9c-4.1,0-7.5,1.5-10.2,4.4c-2.6,2.8-4,6.4-4,10.6V173h-18.1L388.7,77.3L388.7,77.3z M483,174.6
		c-5.4,0-10.3-1.4-14.8-4.2s-6.8-7.9-6.8-15.4c0-8.9,3.7-15.2,11-18.9c7.3-3.8,17.7-5.7,31.1-5.7v-4.9c0-3.1-0.7-5.5-2.1-7.1
		c-1.3-1.7-3.9-2.5-7.7-2.5c-4.1,0-7,0.6-8.7,1.9c-1.7,1.2-2.5,2.7-2.5,4.4v2H465c-0.1-0.5-0.1-1.5-0.1-2.9c0-5.8,2.6-10.5,7.7-14
		c5.2-3.5,12.1-5.3,20.7-5.3c9.5,0,16.6,1.9,21.3,5.8c4.8,3.9,7.1,9.5,7.1,16.8v30.7c0,1.6,0.4,2.8,1.3,3.6c0.9,0.7,2,1.1,3.3,1.1
		h3.7v12.7c-2.8,1.4-6.3,2.1-10.5,2.1c-3.6,0-6.7-0.8-9.1-2.4c-2.4-1.6-4-3.8-4.9-6.8h-0.8c-2.6,3-5.5,5.3-8.9,6.9
		C492.6,173.9,488.3,174.6,483,174.6z M488.7,160.3c5.1,0,8.9-1.4,11.3-4.2c2.4-2.9,3.6-6.8,3.6-11.5v-2.1
		c-15.8,0-23.7,3.5-23.7,10.6c0,2.2,0.7,4,2.1,5.3C483.5,159.7,485.7,160.3,488.7,160.3z M537.9,77.3H556v16.4h-18.1V77.3z
		 M537.9,103.4H556V173h-18.1V103.4z M572.1,103.4h15.5l1.3,9.1h0.9c5.6-7.1,12.9-10.7,21.7-10.7c7.1,0,12.8,1.9,16.8,5.8
		c4.1,3.9,6.2,10.1,6.2,18.7V173h-18.1v-42.9c0-4.3-1-7.5-3-9.4s-5-2.9-9-2.9c-4.1,0-7.5,1.5-10.2,4.4c-2.6,2.8-4,6.4-4,10.6V173
		h-18.1L572.1,103.4L572.1,103.4z M652.1,118.2h-9.9v-14.8h9.9v-7.9c0-5.5,1.5-10,4.4-13.6c2.9-3.7,7.7-5.6,14.4-5.6
		c1.9,0,3.9,0.2,6.1,0.7c2.2,0.4,4.1,0.9,5.6,1.5v12.7H676c-3.8,0-5.7,1.9-5.7,5.7v6.6h12.3v14.8h-12.3V173h-18.1v-54.8H652.1z
		 M694.5,77.3h18.1V173h-18.1V77.3z M759.6,174.6c-11.9,0-20.8-3-26.6-8.9s-8.7-15.1-8.7-27.5s2.9-21.6,8.7-27.5s14.7-8.9,26.6-8.9
		s20.8,3,26.6,8.9c5.9,5.9,8.9,15.1,8.9,27.5s-3,21.6-8.9,27.5C780.4,171.7,771.5,174.6,759.6,174.6z M759.6,159.8
		c5.9,0,10.2-1.7,12.8-5c2.6-3.4,4-8.6,4-15.5v-2.1c0-6.9-1.3-12-4-15.4c-2.6-3.4-6.9-5.2-12.8-5.2s-10.2,1.7-12.8,5.2
		c-2.6,3.4-3.8,8.5-3.8,15.4v2.1c0,6.9,1.3,12,3.8,15.5C749.4,158.1,753.7,159.8,759.6,159.8z M798.1,103.4h18.7l7.5,28.6
		c0.5,2,1.3,5.5,2.3,10.3s1.6,8.1,1.9,9.7h0.5c0.3-1.5,0.8-4.2,1.6-8.2c0.9-4.1,1.8-7.9,2.6-11.6l7.1-28.7H859l7.5,28.9
		c0.7,2.6,1.5,6.2,2.5,10.7s1.6,7.5,1.9,9h0.5c0.3-1.3,0.8-4.1,1.7-8.5s1.7-8.2,2.5-11.3l7.1-28.9H900L879.3,173h-18.8l-7.9-33.2
		c-0.7-2.7-1.4-5.7-2-9s-1-5.4-1.2-6.4h-0.7c-0.1,1-0.4,3-0.9,6.2c-0.5,3.2-1.1,6.2-1.9,9l-8.3,33.4h-18.8L798.1,103.4z"/>
	<g>
		<g>
			<path class="st0" d="M235.3,88.6L162,15.1C141.8-5,108.8-5,88.6,15.1L15.1,88.6c-20.2,20.2-20.2,53.2,0,73.4l73.4,73.4
				c20.2,20.2,53.2,20.2,73.4,0l73.4-73.4C255.5,141.8,255.5,108.7,235.3,88.6z M191.3,158.3c0,18.2-14.8,33.1-33,33.1H92.2
				c-18.1,0-33-14.9-33-33.1V92.2c0-18.2,14.9-33.1,33-33.1h66.2c18.2,0,33,14.9,33,33.1L191.3,158.3L191.3,158.3z"/>
			
				<linearGradient id="SVGID_1_" gradientUnits="userSpaceOnUse" x1="136.2102" y1="3177.5181" x2="223.9794" y2="3167.4626" gradientTransform="matrix(1 0 0 1 0 -3047.3784)">
				<stop  offset="0" style="stop-color:#E42A2D"/>
				<stop  offset="1" style="stop-color:#F5B435"/>
			</linearGradient>
			<path class="st1" d="M180.2,173.9c26.9,0,48.8-21.8,48.8-48.8c0-26.9-21.8-48.8-48.8-48.8c-26.9,0-48.8,21.8-48.8,48.8
				C131.4,152,153.2,173.9,180.2,173.9z"/>
		</g>
	</g>
</g>
<g class="st2">
	<path class="st0" d="M302.2,184.5h9.8c4.2,0,7.5,1.1,9.8,3.3c2.3,2.2,3.4,5.5,3.4,10c0,4.5-1.1,7.8-3.4,10
		c-2.3,2.2-5.5,3.3-9.8,3.3h-9.8V184.5z M312,207.7c3.1,0,5.4-0.8,7-2.3c1.6-1.5,2.4-4.1,2.4-7.6v-0.1c0-3.6-0.8-6.1-2.4-7.7
		s-3.9-2.3-7-2.3h-6.1v20H312z"/>
	<path class="st0" d="M330.8,208.8c-1.6-1.7-2.4-4.4-2.4-8c0-3.6,0.8-6.3,2.4-8c1.6-1.7,4-2.6,7.3-2.6c2.9,0,5.1,0.8,6.6,2.3
		c1.5,1.6,2.2,4.1,2.2,7.5v1.7H332c0.1,2.3,0.7,4.1,1.7,5.2c1,1.1,2.5,1.7,4.5,1.7c1.6,0,2.9-0.4,3.9-1.1c1-0.7,1.5-1.9,1.5-3.4h3.3
		c0,2.4-0.8,4.2-2.4,5.5c-1.6,1.3-3.7,1.9-6.3,1.9C334.9,211.4,332.4,210.5,330.8,208.8z M343.3,198.9c0-3.9-1.7-5.9-5.2-5.9
		c-1.9,0-3.4,0.5-4.3,1.4c-1,0.9-1.5,2.4-1.8,4.5H343.3z"/>
	<path class="st0" d="M351.9,208.8c-1.4-1.7-2.2-4.4-2.2-8c0-3.6,0.7-6.3,2.2-8c1.5-1.7,3.7-2.6,6.8-2.6c2.8,0,4.8,0.7,6.1,2
		s1.9,3.3,1.9,6h-3.5c0-1.8-0.3-3.1-1-3.9c-0.7-0.8-1.8-1.2-3.6-1.2c-1.9,0-3.2,0.6-4.1,1.8c-0.9,1.2-1.3,3.2-1.3,6v0.2
		c0,2.7,0.4,4.7,1.3,5.9c0.8,1.2,2.2,1.8,4.2,1.8c1.7,0,2.9-0.4,3.6-1.3c0.7-0.9,1.1-2.2,1.1-3.9h3.3c0,2.3-0.7,4.2-2,5.7
		c-1.3,1.5-3.3,2.3-6,2.3C355.6,211.4,353.3,210.5,351.9,208.8z"/>
	<path class="st0" d="M371.5,208.8c-1.6-1.7-2.4-4.4-2.4-8c0-3.6,0.8-6.3,2.4-8c1.6-1.7,4-2.6,7.3-2.6c2.9,0,5.1,0.8,6.6,2.3
		c1.5,1.6,2.2,4.1,2.2,7.5v1.7h-14.9c0.1,2.3,0.7,4.1,1.7,5.2c1,1.1,2.5,1.7,4.5,1.7c1.6,0,2.9-0.4,3.9-1.1c1-0.7,1.5-1.9,1.5-3.4
		h3.3c0,2.4-0.8,4.2-2.4,5.5c-1.6,1.3-3.7,1.9-6.3,1.9C375.5,211.4,373.1,210.5,371.5,208.8z M384,198.9c0-3.9-1.7-5.9-5.2-5.9
		c-1.9,0-3.4,0.5-4.3,1.4c-1,0.9-1.5,2.4-1.8,4.5H384z"/>
	<path class="st0" d="M391.6,190.7h2.6l0.4,2.7h0.3c1.5-2.1,3.8-3.2,6.8-3.2c2,0,3.6,0.5,4.7,1.6s1.6,2.8,1.6,5.3v13.8h-3.4v-13.6
		c0-1.6-0.4-2.7-1.1-3.4c-0.7-0.6-1.8-0.9-3.1-0.9c-1,0-1.9,0.2-2.7,0.7c-0.8,0.5-1.5,1.2-2,2.1c-0.5,0.9-0.7,2-0.7,3.2v12h-3.4
		V190.7z"/>
	<path class="st0" d="M414.6,210.1c-0.6-0.8-1-1.8-1-3v-13.6h-2.5v-2.8h2.5l0.7-5.6h2.6v5.6h3.4v2.8H417v13.3c0,1.2,0.6,1.8,1.7,1.8
		h1.7v2.2c-0.3,0.2-0.8,0.3-1.3,0.4c-0.5,0.1-1,0.2-1.5,0.2C416.3,211.4,415.2,210.9,414.6,210.1z"/>
	<path class="st0" d="M423.8,190.7h2.6l0.4,3h0.2c0.4-1,1-1.8,1.7-2.5s1.8-1,3-1c0.7,0,1.3,0.1,1.8,0.3v3.3h-1.4
		c-1.4,0-2.6,0.4-3.6,1.3s-1.4,2.1-1.4,3.9v12h-3.4V190.7z"/>
	<path class="st0" d="M437.5,210.2c-1.4-0.8-2-2.3-2-4.5c0-2.6,1.2-4.4,3.5-5.3c2.3-1,5.7-1.4,10-1.4v-2.2c0-1.2-0.3-2.1-1-2.7
		c-0.7-0.6-1.9-0.9-3.6-0.9c-1.6,0-2.8,0.3-3.5,0.9c-0.7,0.6-1.1,1.4-1.1,2.3v0.5h-3.3c0-0.2,0-0.4,0-0.8c0-1.8,0.7-3.2,2.2-4.2
		c1.5-1,3.5-1.5,6-1.5c2.5,0,4.4,0.5,5.7,1.6c1.3,1.1,2,2.5,2,4.5v11c0,0.5,0.1,0.8,0.4,1c0.3,0.2,0.6,0.3,1,0.3h1.5v2.2
		c-0.7,0.3-1.5,0.5-2.6,0.5c-0.9,0-1.6-0.3-2.2-0.8s-1-1.2-1.2-2.1h-0.3c-0.7,1-1.6,1.7-2.8,2.2s-2.5,0.8-3.9,0.8
		C440.4,211.4,438.8,211,437.5,210.2z M445.8,208c0.9-0.4,1.6-1,2.2-1.8c0.6-0.8,0.8-1.8,0.8-2.9v-1.5c-3.3,0-5.8,0.3-7.5,0.8
		c-1.7,0.5-2.5,1.5-2.5,3c0,1.1,0.3,1.9,1,2.4c0.7,0.5,1.7,0.7,3,0.7C444,208.6,445,208.4,445.8,208z"/>
	<path class="st0" d="M458,183.1h3.4v27.9H458V183.1z"/>
	<path class="st0" d="M466.6,183.1h3.4v3.7h-3.4V183.1z M466.6,190.7h3.4v20.3h-3.4V190.7z"/>
	<path class="st0" d="M473.5,209.1l11.8-15.6h-10.9v-2.8h15.9v1.8l-11.8,15.7h12.4v2.8h-17.4V209.1z"/>
	<path class="st0" d="M495.2,210.2c-1.4-0.8-2-2.3-2-4.5c0-2.6,1.2-4.4,3.5-5.3s5.7-1.4,10-1.4v-2.2c0-1.2-0.3-2.1-1-2.7
		c-0.7-0.6-1.9-0.9-3.6-0.9c-1.6,0-2.8,0.3-3.5,0.9s-1.1,1.4-1.1,2.3v0.5h-3.3c0-0.2,0-0.4,0-0.8c0-1.8,0.7-3.2,2.2-4.2
		c1.5-1,3.5-1.5,6-1.5c2.5,0,4.4,0.5,5.7,1.6c1.3,1.1,2,2.5,2,4.5v11c0,0.5,0.1,0.8,0.4,1c0.3,0.2,0.6,0.3,1,0.3h1.5v2.2
		c-0.7,0.3-1.5,0.5-2.6,0.5c-0.9,0-1.6-0.3-2.2-0.8s-1-1.2-1.2-2.1h-0.3c-0.7,1-1.6,1.7-2.8,2.2s-2.5,0.8-3.9,0.8
		C498.2,211.4,496.6,211,495.2,210.2z M503.6,208c0.9-0.4,1.6-1,2.2-1.8c0.6-0.8,0.8-1.8,0.8-2.9v-1.5c-3.3,0-5.8,0.3-7.5,0.8
		c-1.7,0.5-2.5,1.5-2.5,3c0,1.1,0.3,1.9,1,2.4c0.7,0.5,1.7,0.7,3,0.7C501.8,208.6,502.7,208.4,503.6,208z"/>
	<path class="st0" d="M517.4,210.1c-0.6-0.8-1-1.8-1-3v-13.6h-2.5v-2.8h2.5l0.7-5.6h2.6v5.6h3.4v2.8h-3.4v13.3
		c0,1.2,0.6,1.8,1.7,1.8h1.7v2.2c-0.3,0.2-0.8,0.3-1.3,0.4c-0.5,0.1-1,0.2-1.5,0.2C519,211.4,518,210.9,517.4,210.1z"/>
	<path class="st0" d="M526.5,183.1h3.4v3.7h-3.4V183.1z M526.5,190.7h3.4v20.3h-3.4V190.7z"/>
	<path class="st0" d="M536.2,208.8c-1.6-1.7-2.4-4.4-2.4-8c0-3.6,0.8-6.3,2.4-8c1.6-1.7,3.9-2.6,7-2.6c3.1,0,5.4,0.9,7,2.6
		c1.6,1.7,2.3,4.4,2.3,8c0,3.6-0.8,6.3-2.3,8c-1.6,1.7-3.9,2.6-7,2.6C540.1,211.4,537.8,210.5,536.2,208.8z M547.7,206.8
		c0.9-1.2,1.4-3.1,1.4-5.8v-0.3c0-2.7-0.5-4.6-1.4-5.8s-2.4-1.8-4.5-1.8s-3.5,0.6-4.5,1.8s-1.4,3.1-1.4,5.8v0.3
		c0,2.7,0.5,4.6,1.4,5.8s2.4,1.8,4.5,1.8S546.8,208,547.7,206.8z"/>
	<path class="st0" d="M556.5,190.7h2.6l0.4,2.7h0.3c1.5-2.1,3.8-3.2,6.8-3.2c2,0,3.6,0.5,4.7,1.6c1.1,1.1,1.6,2.8,1.6,5.3v13.8h-3.4
		v-13.6c0-1.6-0.4-2.7-1.1-3.4c-0.7-0.6-1.8-0.9-3.1-0.9c-1,0-1.9,0.2-2.7,0.7c-0.8,0.5-1.5,1.2-2,2.1c-0.5,0.9-0.7,2-0.7,3.2v12
		h-3.4V190.7z"/>
</g>
<g class="st2">
	<path class="st3" d="M589.1,184.5h5.4l6.3,18c0.4,1,0.8,2.4,1.2,4h0.2c0.5-1.8,0.8-3.1,1.2-4l6.4-18h5.4v26.4h-3.7v-17.5l0.1-4.9
		h-0.3c-0.2,1.1-0.4,1.9-0.7,2.5l-7.2,19.8h-3l-7.1-19.8c-0.2-0.5-0.4-1.4-0.7-2.5h-0.2l0.1,4.9v17.5h-3.4V184.5z"/>
	<path class="st3" d="M621.6,210.2c-1.4-0.8-2-2.3-2-4.5c0-2.6,1.2-4.4,3.5-5.3c2.3-1,5.7-1.4,10-1.4v-2.2c0-1.2-0.3-2.1-1-2.7
		c-0.7-0.6-1.9-0.9-3.6-0.9c-1.6,0-2.8,0.3-3.5,0.9c-0.7,0.6-1.1,1.4-1.1,2.3v0.5h-3.3c0-0.2,0-0.4,0-0.8c0-1.8,0.7-3.2,2.2-4.2
		c1.5-1,3.5-1.5,6-1.5c2.5,0,4.4,0.5,5.7,1.6c1.3,1.1,2,2.5,2,4.5v11c0,0.5,0.1,0.8,0.4,1c0.3,0.2,0.6,0.3,1,0.3h1.5v2.2
		c-0.7,0.3-1.5,0.5-2.6,0.5c-0.9,0-1.6-0.3-2.2-0.8s-1-1.2-1.2-2.1H633c-0.7,1-1.6,1.7-2.8,2.2s-2.5,0.8-3.9,0.8
		C624.5,211.4,622.9,211,621.6,210.2z M630,208c0.9-0.4,1.6-1,2.2-1.8c0.6-0.8,0.8-1.8,0.8-2.9v-1.5c-3.3,0-5.8,0.3-7.5,0.8
		c-1.7,0.5-2.5,1.5-2.5,3c0,1.1,0.3,1.9,1,2.4c0.7,0.5,1.7,0.7,3,0.7C628.1,208.6,629.1,208.4,630,208z"/>
	<path class="st3" d="M643.7,210.1c-0.6-0.8-1-1.8-1-3v-13.6h-2.5v-2.8h2.5l0.7-5.6h2.6v5.6h3.4v2.8h-3.4v13.3
		c0,1.2,0.6,1.8,1.7,1.8h1.7v2.2c-0.3,0.2-0.8,0.3-1.3,0.4c-0.5,0.1-1,0.2-1.5,0.2C645.3,211.4,644.3,210.9,643.7,210.1z"/>
	<path class="st3" d="M654.4,210.1c-0.6-0.8-1-1.8-1-3v-13.6H651v-2.8h2.5l0.7-5.6h2.6v5.6h3.4v2.8h-3.4v13.3c0,1.2,0.6,1.8,1.7,1.8
		h1.7v2.2c-0.3,0.2-0.8,0.3-1.3,0.4c-0.5,0.1-1,0.2-1.5,0.2C656,211.4,655,210.9,654.4,210.1z"/>
	<path class="st3" d="M664.9,208.8c-1.6-1.7-2.4-4.4-2.4-8c0-3.6,0.8-6.3,2.4-8s4-2.6,7.3-2.6c2.9,0,5.1,0.8,6.6,2.3
		c1.5,1.6,2.2,4.1,2.2,7.5v1.7H666c0.1,2.3,0.7,4.1,1.7,5.2c1,1.1,2.5,1.7,4.5,1.7c1.6,0,2.9-0.4,3.9-1.1c1-0.7,1.5-1.9,1.5-3.4h3.3
		c0,2.4-0.8,4.2-2.4,5.5c-1.6,1.3-3.7,1.9-6.3,1.9C668.9,211.4,666.5,210.5,664.9,208.8z M677.3,198.9c0-3.9-1.7-5.9-5.2-5.9
		c-1.9,0-3.4,0.5-4.3,1.4c-1,0.9-1.5,2.4-1.8,4.5H677.3z"/>
	<path class="st3" d="M685,190.7h2.6l0.4,3h0.2c0.4-1,1-1.8,1.7-2.5s1.8-1,3-1c0.7,0,1.3,0.1,1.8,0.3v3.3h-1.4
		c-1.4,0-2.6,0.4-3.6,1.3c-0.9,0.8-1.4,2.1-1.4,3.9v12H685V190.7z"/>
	<path class="st3" d="M700.1,210.6c-1.2-0.6-2.2-1.3-2.8-2.2c-0.6-0.9-0.9-1.9-0.9-2.9c0-0.3,0-0.5,0-0.6c0-0.1,0-0.2,0-0.2h3.4v0.4
		c0,1.2,0.5,2.1,1.4,2.7s2.2,0.9,3.7,0.9c1.3,0,2.4-0.3,3.3-0.8c0.9-0.5,1.3-1.3,1.3-2.2c0-0.7-0.2-1.4-0.7-1.8
		c-0.5-0.5-1.1-0.8-1.8-1.1c-0.7-0.3-1.7-0.6-2.9-0.9c-1.5-0.4-2.7-0.8-3.6-1.2c-0.9-0.4-1.7-1-2.4-1.7c-0.7-0.8-1-1.7-1-2.9
		c0-1.8,0.7-3.2,2.2-4.2c1.5-1,3.4-1.6,5.9-1.6c1.5,0,2.9,0.3,4,0.8c1.1,0.5,2,1.2,2.6,2c0.6,0.8,0.9,1.8,0.9,2.8l0,0.7h-3.3v-0.3
		c0-0.9-0.4-1.6-1.1-2.2c-0.7-0.6-1.8-0.9-3.4-0.9c-1.5,0-2.6,0.3-3.2,0.8c-0.6,0.6-0.9,1.2-0.9,1.9c0,0.6,0.2,1.1,0.7,1.5
		c0.4,0.4,1,0.7,1.6,0.9c0.6,0.2,1.5,0.5,2.7,0.8c1.6,0.4,2.9,0.8,3.9,1.2c1,0.4,1.9,1,2.6,1.8c0.7,0.8,1.1,1.9,1.1,3.2
		c0,2.1-0.8,3.6-2.3,4.7c-1.5,1-3.5,1.6-6,1.6C702.9,211.4,701.3,211.1,700.1,210.6z"/>
</g>
</svg>
