<?xml version="1.0" encoding="utf-8"?>
<!-- Generator: Adobe Illustrator 27.8.1, SVG Export Plug-In . SVG Version: 6.00 Build 0)  -->
<svg version="1.1" id="Layer_1" xmlns="http://www.w3.org/2000/svg" xmlns:xlink="http://www.w3.org/1999/xlink" x="0px" y="0px"
	 viewBox="0 0 1095 445.5" style="enable-background:new 0 0 1095 445.5;" xml:space="preserve">
<style type="text/css">
	.st0{fill:#231F20;}
	.st1{fill:#FFFFFF;}
	.st2{fill:url(#SVGID_1_);}
	.st3{fill:#FF8A3F;}
</style>
<rect class="st0" width="1095" height="445.5"/>
<g>
	<g>
		<path class="st1" d="M433.5,272.2c-29.3,0-43.9-15.7-43.9-47c0-15.7,3.8-27.4,11.5-35.2c7.7-7.9,18.5-11.8,32.4-11.8
			c7.7,0,14.6,1.3,20.7,4c6.2,2.6,11,6.5,14.6,11.9c3.6,5.3,5.4,11.8,5.4,19.5h-19.7c0-5.9-1.9-10.5-5.7-13.9
			c-3.8-3.4-8.7-5.2-14.8-5.2c-8.3,0-14.5,2.5-18.5,7.4s-6.1,12-6.1,21.3v4c0,19.2,8.2,28.7,24.6,28.7c6.4,0,11.6-1.7,15.4-5
			c3.9-3.4,5.8-8,5.8-13.9h19.1c0,7.8-1.8,14.3-5.3,19.6c-3.5,5.2-8.3,9.1-14.4,11.8C448.3,270.9,441.3,272.2,433.5,272.2z
			 M486.2,174.9h18.1V209h0.9c5.3-6.4,12.1-9.7,20.4-9.7c7.1,0,12.8,1.9,16.8,5.8c4.1,3.9,6.2,10.1,6.2,18.7v46.7h-18.1v-42.9
			c0-4.3-1-7.5-3-9.4c-2-1.9-5-2.9-9-2.9c-4.1,0-7.5,1.5-10.2,4.4c-2.6,2.8-4,6.4-4,10.6v40.2h-18.1V174.9z M580.5,272.2
			c-5.4,0-10.3-1.4-14.8-4.2c-4.5-2.8-6.8-7.9-6.8-15.4c0-8.9,3.7-15.2,11-18.9c7.3-3.8,17.7-5.7,31.1-5.7V223
			c0-3.1-0.7-5.5-2.1-7.1c-1.3-1.7-3.9-2.5-7.7-2.5c-4.1,0-7,0.6-8.7,1.9c-1.7,1.2-2.5,2.7-2.5,4.4v2h-17.5
			c-0.1-0.5-0.1-1.5-0.1-2.9c0-5.8,2.6-10.5,7.7-14c5.2-3.5,12.1-5.3,20.7-5.3c9.5,0,16.6,1.9,21.3,5.8c4.8,3.9,7.1,9.5,7.1,16.8
			v30.7c0,1.6,0.4,2.8,1.3,3.6c0.9,0.7,2,1.1,3.3,1.1h3.7V270c-2.8,1.4-6.3,2.1-10.5,2.1c-3.6,0-6.7-0.8-9.1-2.4
			c-2.4-1.6-4-3.8-4.9-6.8h-0.8c-2.6,3-5.5,5.3-8.9,6.9C590.1,271.4,585.8,272.2,580.5,272.2z M586.2,257.9c5.1,0,8.9-1.4,11.3-4.2
			c2.4-2.9,3.6-6.8,3.6-11.5V240c-15.8,0-23.7,3.5-23.7,10.6c0,2.2,0.7,4,2.1,5.3C581,257.2,583.2,257.9,586.2,257.9z M635.4,174.9
			h18.1v16.4h-18.1V174.9z M635.4,200.9h18.1v69.6h-18.1V200.9z M669.6,200.9h15.5l1.3,9.1h0.9c5.6-7.1,12.9-10.7,21.7-10.7
			c7.1,0,12.8,1.9,16.8,5.8c4.1,3.9,6.2,10.1,6.2,18.7v46.7H714v-42.9c0-4.3-1-7.5-3-9.4c-2-1.9-5-2.9-9-2.9
			c-4.1,0-7.5,1.5-10.2,4.4c-2.6,2.8-4,6.4-4,10.6v40.2h-18.1V200.9z M749.6,215.8h-9.9v-14.8h9.9V193c0-5.5,1.5-10,4.4-13.6
			c2.9-3.7,7.7-5.6,14.4-5.6c1.9,0,3.9,0.2,6.1,0.7c2.2,0.4,4.1,0.9,5.6,1.5v12.7h-6.6c-3.8,0-5.7,1.9-5.7,5.7v6.6h12.3v14.8h-12.3
			v54.8h-18.1V215.8z M792,174.9h18.1v95.7H792V174.9z M857.2,272.2c-11.9,0-20.8-3-26.6-8.9c-5.8-5.9-8.7-15.1-8.7-27.5
			s2.9-21.6,8.7-27.5c5.8-5.9,14.7-8.9,26.6-8.9c11.9,0,20.8,3,26.6,8.9c5.9,5.9,8.9,15.1,8.9,27.5s-3,21.6-8.9,27.5
			C877.9,269.2,869.1,272.2,857.2,272.2z M857.2,257.3c5.9,0,10.2-1.7,12.8-5c2.6-3.4,4-8.6,4-15.5v-2.1c0-6.9-1.3-12-4-15.4
			c-2.6-3.4-6.9-5.2-12.8-5.2c-5.9,0-10.2,1.7-12.8,5.2c-2.6,3.4-3.8,8.5-3.8,15.4v2.1c0,6.9,1.3,12,3.8,15.5
			C847,255.7,851.2,257.3,857.2,257.3z M895.6,200.9h18.7l7.5,28.6c0.5,2,1.3,5.5,2.3,10.3c1,4.9,1.6,8.1,1.9,9.7h0.5
			c0.3-1.5,0.8-4.2,1.6-8.2c0.9-4.1,1.8-7.9,2.6-11.6l7.1-28.7h18.7l7.5,28.9c0.7,2.6,1.5,6.2,2.5,10.7s1.6,7.5,1.9,9h0.5
			c0.3-1.3,0.8-4.1,1.7-8.5c0.9-4.4,1.7-8.2,2.5-11.3l7.1-28.9h17.2l-20.7,69.6h-18.8l-7.9-33.2c-0.7-2.7-1.4-5.7-2-9
			c-0.6-3.3-1-5.4-1.2-6.4h-0.7c-0.1,1-0.4,3-0.9,6.2c-0.5,3.2-1.1,6.2-1.9,9l-8.3,33.4h-18.8L895.6,200.9z"/>
		<g>
			<g>
				<path class="st1" d="M332.8,186.1l-73.4-73.4c-20.2-20.2-53.2-20.2-73.4,0l-73.4,73.4c-20.2,20.2-20.2,53.2,0,73.4l73.4,73.4
					c20.2,20.2,53.2,20.2,73.4,0l73.4-73.4C353,239.3,353,206.3,332.8,186.1z M288.8,255.8c0,18.2-14.8,33.1-33,33.1h-66.2
					c-18.1,0-33-14.9-33-33.1v-66.1c0-18.2,14.9-33.1,33-33.1h66.2c18.2,0,33,14.9,33,33.1V255.8L288.8,255.8z"/>
				
					<linearGradient id="SVGID_1_" gradientUnits="userSpaceOnUse" x1="233.7317" y1="-2747.6421" x2="321.5009" y2="-2737.5867" gradientTransform="matrix(1 0 0 -1 0 -2519.9844)">
					<stop  offset="0" style="stop-color:#E42A2D"/>
					<stop  offset="1" style="stop-color:#F5B435"/>
				</linearGradient>
				<path class="st2" d="M277.7,271.4c26.9,0,48.8-21.8,48.8-48.8c0-26.9-21.8-48.8-48.8-48.8c-26.9,0-48.8,21.8-48.8,48.8
					C228.9,249.5,250.8,271.4,277.7,271.4z"/>
			</g>
		</g>
	</g>
</g>
<g>
	<path class="st1" d="M399.7,282h9.8c4.2,0,7.5,1.1,9.8,3.3c2.3,2.2,3.4,5.5,3.4,10c0,4.5-1.1,7.8-3.4,10c-2.3,2.2-5.5,3.3-9.8,3.3
		h-9.8V282z M409.5,305.3c3.1,0,5.4-0.8,7-2.3c1.6-1.5,2.4-4.1,2.4-7.6v-0.1c0-3.6-0.8-6.1-2.4-7.7s-3.9-2.3-7-2.3h-6.1v20H409.5z"
		/>
	<path class="st1" d="M428.4,306.3c-1.6-1.7-2.4-4.4-2.4-8c0-3.6,0.8-6.3,2.4-8c1.6-1.7,4-2.6,7.3-2.6c2.9,0,5.1,0.8,6.6,2.3
		c1.5,1.6,2.2,4.1,2.2,7.5v1.7h-14.9c0.1,2.3,0.7,4.1,1.7,5.2c1,1.1,2.5,1.7,4.5,1.7c1.6,0,2.9-0.4,3.9-1.1c1-0.7,1.5-1.9,1.5-3.4
		h3.3c0,2.4-0.8,4.2-2.4,5.5c-1.6,1.3-3.7,1.9-6.3,1.9C432.4,308.9,430,308.1,428.4,306.3z M440.8,296.4c0-3.9-1.7-5.9-5.2-5.9
		c-1.9,0-3.4,0.5-4.3,1.4c-1,0.9-1.5,2.4-1.8,4.5H440.8z"/>
	<path class="st1" d="M449.4,306.4c-1.4-1.7-2.2-4.4-2.2-8c0-3.6,0.7-6.3,2.2-8s3.7-2.6,6.8-2.6c2.8,0,4.8,0.7,6.1,2
		c1.3,1.3,1.9,3.3,1.9,6h-3.5c0-1.8-0.3-3.1-1-3.9c-0.7-0.8-1.8-1.2-3.6-1.2c-1.9,0-3.2,0.6-4.1,1.8c-0.9,1.2-1.3,3.2-1.3,6v0.2
		c0,2.7,0.4,4.7,1.3,5.9c0.8,1.2,2.2,1.8,4.2,1.8c1.7,0,2.9-0.4,3.6-1.3c0.7-0.9,1.1-2.2,1.1-3.9h3.3c0,2.3-0.7,4.2-2,5.7
		c-1.3,1.5-3.3,2.3-6,2.3C453.1,308.9,450.8,308.1,449.4,306.4z"/>
	<path class="st1" d="M469.1,306.3c-1.6-1.7-2.4-4.4-2.4-8c0-3.6,0.8-6.3,2.4-8c1.6-1.7,4-2.6,7.3-2.6c2.9,0,5.1,0.8,6.6,2.3
		c1.5,1.6,2.2,4.1,2.2,7.5v1.7h-14.9c0.1,2.3,0.7,4.1,1.7,5.2c1,1.1,2.5,1.7,4.5,1.7c1.6,0,2.9-0.4,3.9-1.1c1-0.7,1.5-1.9,1.5-3.4
		h3.3c0,2.4-0.8,4.2-2.4,5.5c-1.6,1.3-3.7,1.9-6.3,1.9C473.1,308.9,470.6,308.1,469.1,306.3z M481.5,296.4c0-3.9-1.7-5.9-5.2-5.9
		c-1.9,0-3.4,0.5-4.3,1.4c-1,0.9-1.5,2.4-1.8,4.5H481.5z"/>
	<path class="st1" d="M489.2,288.2h2.6l0.4,2.7h0.3c1.5-2.1,3.8-3.2,6.8-3.2c2,0,3.6,0.5,4.7,1.6s1.6,2.8,1.6,5.3v13.8h-3.4v-13.6
		c0-1.6-0.4-2.7-1.1-3.4c-0.7-0.6-1.8-0.9-3.1-0.9c-1,0-1.9,0.2-2.7,0.7c-0.8,0.5-1.5,1.2-2,2.1c-0.5,0.9-0.7,2-0.7,3.2v12h-3.4
		V288.2z"/>
	<path class="st1" d="M512.1,307.6c-0.6-0.8-1-1.8-1-3V291h-2.5v-2.8h2.5l0.7-5.6h2.6v5.6h3.4v2.8h-3.4v13.3c0,1.2,0.6,1.8,1.7,1.8
		h1.7v2.2c-0.3,0.2-0.8,0.3-1.3,0.4s-1,0.2-1.5,0.2C513.8,308.9,512.8,308.5,512.1,307.6z"/>
	<path class="st1" d="M521.3,288.2h2.6l0.4,3h0.2c0.4-1,1-1.8,1.7-2.5s1.8-1,3-1c0.7,0,1.3,0.1,1.8,0.3v3.3h-1.4
		c-1.4,0-2.6,0.4-3.6,1.3s-1.4,2.1-1.4,3.9v12h-3.4V288.2z"/>
	<path class="st1" d="M535,307.7c-1.4-0.8-2-2.3-2-4.5c0-2.6,1.2-4.4,3.5-5.3s5.7-1.4,10-1.4v-2.2c0-1.2-0.3-2.1-1-2.7
		c-0.7-0.6-1.9-0.9-3.6-0.9c-1.6,0-2.8,0.3-3.5,0.9c-0.7,0.6-1.1,1.4-1.1,2.3v0.5h-3.3c0-0.2,0-0.4,0-0.8c0-1.8,0.7-3.2,2.2-4.2
		c1.5-1,3.5-1.5,6-1.5c2.5,0,4.4,0.5,5.7,1.6c1.3,1.1,2,2.5,2,4.5v11c0,0.5,0.1,0.8,0.4,1c0.3,0.2,0.6,0.3,1,0.3h1.5v2.2
		c-0.7,0.3-1.5,0.5-2.6,0.5c-0.9,0-1.6-0.3-2.2-0.8s-1-1.2-1.2-2.1h-0.3c-0.7,1-1.6,1.7-2.8,2.2s-2.5,0.8-3.9,0.8
		C537.9,308.9,536.3,308.5,535,307.7z M543.4,305.5c0.9-0.4,1.6-1,2.2-1.8c0.6-0.8,0.8-1.8,0.8-2.9v-1.5c-3.3,0-5.8,0.3-7.5,0.8
		c-1.7,0.5-2.5,1.5-2.5,3c0,1.1,0.3,1.9,1,2.4c0.7,0.5,1.7,0.7,3,0.7C541.5,306.1,542.5,305.9,543.4,305.5z"/>
	<path class="st1" d="M555.5,280.6h3.4v27.9h-3.4V280.6z"/>
	<path class="st1" d="M564.1,280.6h3.4v3.7h-3.4V280.6z M564.1,288.2h3.4v20.3h-3.4V288.2z"/>
	<path class="st1" d="M571,306.6l11.8-15.6h-10.9v-2.8h15.9v1.8l-11.8,15.7h12.4v2.8H571V306.6z"/>
	<path class="st1" d="M592.8,307.7c-1.4-0.8-2-2.3-2-4.5c0-2.6,1.2-4.4,3.5-5.3s5.7-1.4,10-1.4v-2.2c0-1.2-0.3-2.1-1-2.7
		c-0.7-0.6-1.9-0.9-3.6-0.9c-1.6,0-2.8,0.3-3.5,0.9c-0.7,0.6-1.1,1.4-1.1,2.3v0.5h-3.3c0-0.2,0-0.4,0-0.8c0-1.8,0.7-3.2,2.2-4.2
		c1.5-1,3.5-1.5,6-1.5c2.5,0,4.4,0.5,5.7,1.6c1.3,1.1,2,2.5,2,4.5v11c0,0.5,0.1,0.8,0.4,1c0.3,0.2,0.6,0.3,1,0.3h1.5v2.2
		c-0.7,0.3-1.5,0.5-2.6,0.5c-0.9,0-1.6-0.3-2.2-0.8s-1-1.2-1.2-2.1h-0.3c-0.7,1-1.6,1.7-2.8,2.2s-2.5,0.8-3.9,0.8
		C595.7,308.9,594.1,308.5,592.8,307.7z M601.2,305.5c0.9-0.4,1.6-1,2.2-1.8c0.6-0.8,0.8-1.8,0.8-2.9v-1.5c-3.3,0-5.8,0.3-7.5,0.8
		c-1.7,0.5-2.5,1.5-2.5,3c0,1.1,0.3,1.9,1,2.4c0.7,0.5,1.7,0.7,3,0.7C599.3,306.1,600.3,305.9,601.2,305.5z"/>
	<path class="st1" d="M614.9,307.6c-0.6-0.8-1-1.8-1-3V291h-2.5v-2.8h2.5l0.7-5.6h2.6v5.6h3.4v2.8h-3.4v13.3c0,1.2,0.6,1.8,1.7,1.8
		h1.7v2.2c-0.3,0.2-0.8,0.3-1.3,0.4s-1,0.2-1.5,0.2C616.5,308.9,615.5,308.5,614.9,307.6z"/>
	<path class="st1" d="M624,280.6h3.4v3.7H624V280.6z M624,288.2h3.4v20.3H624V288.2z"/>
	<path class="st1" d="M633.7,306.3c-1.6-1.7-2.4-4.4-2.4-8c0-3.6,0.8-6.3,2.4-8c1.6-1.7,3.9-2.6,7-2.6c3.1,0,5.4,0.9,7,2.6
		c1.6,1.7,2.3,4.4,2.3,8c0,3.6-0.8,6.3-2.3,8c-1.6,1.7-3.9,2.6-7,2.6C637.6,308.9,635.3,308.1,633.7,306.3z M645.2,304.3
		c0.9-1.2,1.4-3.1,1.4-5.8v-0.3c0-2.7-0.5-4.6-1.4-5.8c-0.9-1.2-2.4-1.8-4.5-1.8c-2.1,0-3.5,0.6-4.5,1.8c-0.9,1.2-1.4,3.1-1.4,5.8
		v0.3c0,2.7,0.5,4.6,1.4,5.8c0.9,1.2,2.4,1.8,4.5,1.8C642.8,306.1,644.3,305.5,645.2,304.3z"/>
	<path class="st1" d="M654,288.2h2.6l0.4,2.7h0.3c1.5-2.1,3.8-3.2,6.8-3.2c2,0,3.6,0.5,4.7,1.6s1.6,2.8,1.6,5.3v13.8H667v-13.6
		c0-1.6-0.4-2.7-1.1-3.4c-0.7-0.6-1.8-0.9-3.1-0.9c-1,0-1.9,0.2-2.7,0.7c-0.8,0.5-1.5,1.2-2,2.1c-0.5,0.9-0.7,2-0.7,3.2v12H654
		V288.2z"/>
	<path class="st3" d="M686.6,282h5.4l6.3,18c0.4,1,0.8,2.4,1.2,4h0.2c0.5-1.8,0.8-3.1,1.2-4l6.4-18h5.4v26.4H709V291l0.1-4.9h-0.3
		c-0.2,1.1-0.4,1.9-0.7,2.5l-7.2,19.8h-3l-7.1-19.8c-0.2-0.5-0.4-1.4-0.7-2.5H690l0.1,4.9v17.5h-3.4V282z"/>
	<path class="st3" d="M719.1,307.7c-1.4-0.8-2-2.3-2-4.5c0-2.6,1.2-4.4,3.5-5.3s5.7-1.4,10-1.4v-2.2c0-1.2-0.3-2.1-1-2.7
		c-0.7-0.6-1.9-0.9-3.6-0.9c-1.6,0-2.8,0.3-3.5,0.9c-0.7,0.6-1.1,1.4-1.1,2.3v0.5h-3.3c0-0.2,0-0.4,0-0.8c0-1.8,0.7-3.2,2.2-4.2
		c1.5-1,3.5-1.5,6-1.5c2.5,0,4.4,0.5,5.7,1.6c1.3,1.1,2,2.5,2,4.5v11c0,0.5,0.1,0.8,0.4,1c0.3,0.2,0.6,0.3,1,0.3h1.5v2.2
		c-0.7,0.3-1.5,0.5-2.6,0.5c-0.9,0-1.6-0.3-2.2-0.8s-1-1.2-1.2-2.1h-0.3c-0.7,1-1.6,1.7-2.8,2.2s-2.5,0.8-3.9,0.8
		C722,308.9,720.5,308.5,719.1,307.7z M727.5,305.5c0.9-0.4,1.6-1,2.2-1.8c0.6-0.8,0.8-1.8,0.8-2.9v-1.5c-3.3,0-5.8,0.3-7.5,0.8
		c-1.7,0.5-2.5,1.5-2.5,3c0,1.1,0.3,1.9,1,2.4c0.7,0.5,1.7,0.7,3,0.7C725.6,306.1,726.6,305.9,727.5,305.5z"/>
	<path class="st3" d="M741.2,307.6c-0.6-0.8-1-1.8-1-3V291h-2.5v-2.8h2.5l0.7-5.6h2.6v5.6h3.4v2.8h-3.4v13.3c0,1.2,0.6,1.8,1.7,1.8
		h1.7v2.2c-0.3,0.2-0.8,0.3-1.3,0.4s-1,0.2-1.5,0.2C742.9,308.9,741.9,308.5,741.2,307.6z"/>
	<path class="st3" d="M751.9,307.6c-0.6-0.8-1-1.8-1-3V291h-2.5v-2.8h2.5l0.7-5.6h2.6v5.6h3.4v2.8h-3.4v13.3c0,1.2,0.6,1.8,1.7,1.8
		h1.7v2.2c-0.3,0.2-0.8,0.3-1.3,0.4s-1,0.2-1.5,0.2C753.6,308.9,752.6,308.5,751.9,307.6z"/>
	<path class="st3" d="M762.4,306.3c-1.6-1.7-2.4-4.4-2.4-8c0-3.6,0.8-6.3,2.4-8c1.6-1.7,4-2.6,7.3-2.6c2.9,0,5.1,0.8,6.6,2.3
		c1.5,1.6,2.2,4.1,2.2,7.5v1.7h-14.9c0.1,2.3,0.7,4.1,1.7,5.2c1,1.1,2.5,1.7,4.5,1.7c1.6,0,2.9-0.4,3.9-1.1c1-0.7,1.5-1.9,1.5-3.4
		h3.3c0,2.4-0.8,4.2-2.4,5.5c-1.6,1.3-3.7,1.9-6.3,1.9C766.4,308.9,764,308.1,762.4,306.3z M774.9,296.4c0-3.9-1.7-5.9-5.2-5.9
		c-1.9,0-3.4,0.5-4.3,1.4c-1,0.9-1.5,2.4-1.8,4.5H774.9z"/>
	<path class="st3" d="M782.5,288.2h2.6l0.4,3h0.2c0.4-1,1-1.8,1.7-2.5s1.8-1,3-1c0.7,0,1.3,0.1,1.8,0.3v3.3h-1.4
		c-1.4,0-2.6,0.4-3.6,1.3s-1.4,2.1-1.4,3.9v12h-3.4V288.2z"/>
	<path class="st3" d="M797.6,308.1c-1.2-0.6-2.2-1.3-2.8-2.2c-0.6-0.9-0.9-1.9-0.9-2.9c0-0.3,0-0.5,0-0.6c0-0.1,0-0.2,0-0.2h3.4v0.4
		c0,1.2,0.5,2.1,1.4,2.7c0.9,0.6,2.2,0.9,3.7,0.9c1.3,0,2.4-0.3,3.3-0.8c0.9-0.5,1.3-1.3,1.3-2.2c0-0.7-0.2-1.4-0.7-1.8
		c-0.5-0.5-1.1-0.8-1.8-1.1c-0.7-0.3-1.7-0.6-2.9-0.9c-1.5-0.4-2.7-0.8-3.6-1.2s-1.7-1-2.4-1.7c-0.7-0.8-1-1.7-1-2.9
		c0-1.8,0.7-3.2,2.2-4.2s3.4-1.6,5.9-1.6c1.5,0,2.9,0.3,4,0.8c1.1,0.5,2,1.2,2.6,2c0.6,0.8,0.9,1.8,0.9,2.8l0,0.7h-3.3v-0.3
		c0-0.9-0.4-1.6-1.1-2.2c-0.7-0.6-1.8-0.9-3.4-0.9c-1.5,0-2.6,0.3-3.2,0.8c-0.6,0.6-0.9,1.2-0.9,1.9c0,0.6,0.2,1.1,0.7,1.5
		c0.4,0.4,1,0.7,1.6,0.9c0.6,0.2,1.5,0.5,2.7,0.8c1.6,0.4,2.9,0.8,3.9,1.2c1,0.4,1.9,1,2.6,1.8c0.7,0.8,1.1,1.9,1.1,3.2
		c0,2.1-0.8,3.6-2.3,4.7c-1.5,1-3.5,1.6-6,1.6C800.4,308.9,798.8,308.6,797.6,308.1z"/>
</g>
</svg>
