<?xml version="1.0" encoding="utf-8"?>
<!-- Generator: Adobe Illustrator 27.8.1, SVG Export Plug-In . SVG Version: 6.00 Build 0)  -->
<svg version="1.1" id="Layer_1" xmlns="http://www.w3.org/2000/svg" xmlns:xlink="http://www.w3.org/1999/xlink" x="0px" y="0px"
	 viewBox="0 0 900 250.5" style="enable-background:new 0 0 900 250.5;" xml:space="preserve">
<style type="text/css">
	.st0{fill:#231F20;}
	.st1{fill:url(#SVGID_1_);}
</style>
<g>
	<path class="st0" d="M335.9,174.6c-29.3,0-43.9-15.7-43.9-47c0-15.7,3.8-27.4,11.5-35.2c7.7-7.9,18.5-11.8,32.4-11.8
		c7.7,0,14.6,1.3,20.7,4c6.2,2.6,11,6.5,14.6,11.9c3.6,5.3,5.4,11.8,5.4,19.5h-19.7c0-5.9-1.9-10.5-5.7-13.9
		c-3.8-3.4-8.7-5.2-14.8-5.2c-8.3,0-14.5,2.5-18.5,7.4c-4.1,4.9-6.1,12-6.1,21.3v4c0,19.2,8.2,28.7,24.6,28.7c6.4,0,11.6-1.7,15.4-5
		c3.9-3.4,5.8-8,5.8-13.9h19.1c0,7.8-1.8,14.3-5.3,19.6c-3.5,5.2-8.3,9.1-14.4,11.8C350.8,173.4,343.8,174.6,335.9,174.6z
		 M388.7,77.3h18.1v34.2h0.9c5.3-6.4,12.1-9.7,20.4-9.7c7.1,0,12.8,1.9,16.8,5.8c4.1,3.9,6.2,10.1,6.2,18.7V173h-18.1v-42.9
		c0-4.3-1-7.5-3-9.4c-2-1.9-5-2.9-9-2.9c-4.1,0-7.5,1.5-10.2,4.4c-2.6,2.8-4,6.4-4,10.6V173h-18.1V77.3z M483,174.6
		c-5.4,0-10.3-1.4-14.8-4.2c-4.5-2.8-6.8-7.9-6.8-15.4c0-8.9,3.7-15.2,11-18.9c7.3-3.8,17.7-5.7,31.1-5.7v-4.9
		c0-3.1-0.7-5.5-2.1-7.1c-1.3-1.7-3.9-2.5-7.7-2.5c-4.1,0-7,0.6-8.7,1.9c-1.7,1.2-2.5,2.7-2.5,4.4v2H465c-0.1-0.5-0.1-1.5-0.1-2.9
		c0-5.8,2.6-10.5,7.7-14c5.2-3.5,12.1-5.3,20.7-5.3c9.5,0,16.6,1.9,21.3,5.8c4.8,3.9,7.1,9.5,7.1,16.8v30.7c0,1.6,0.4,2.8,1.3,3.6
		c0.9,0.7,2,1.1,3.3,1.1h3.7v12.7c-2.8,1.4-6.3,2.1-10.5,2.1c-3.6,0-6.7-0.8-9.1-2.4c-2.4-1.6-4-3.8-4.9-6.8h-0.8
		c-2.6,3-5.5,5.3-8.9,6.9C492.6,173.9,488.3,174.6,483,174.6z M488.7,160.3c5.1,0,8.9-1.4,11.3-4.2c2.4-2.9,3.6-6.8,3.6-11.5v-2.1
		c-15.8,0-23.7,3.5-23.7,10.6c0,2.2,0.7,4,2.1,5.3C483.5,159.7,485.7,160.3,488.7,160.3z M537.9,77.3H556v16.4h-18.1V77.3z
		 M537.9,103.4H556V173h-18.1V103.4z M572.1,103.4h15.5l1.3,9.1h0.9c5.6-7.1,12.9-10.7,21.7-10.7c7.1,0,12.8,1.9,16.8,5.8
		c4.1,3.9,6.2,10.1,6.2,18.7V173h-18.1v-42.9c0-4.3-1-7.5-3-9.4s-5-2.9-9-2.9c-4.1,0-7.5,1.5-10.2,4.4c-2.6,2.8-4,6.4-4,10.6V173
		h-18.1V103.4z M652.1,118.2h-9.9v-14.8h9.9v-7.9c0-5.5,1.5-10,4.4-13.6c2.9-3.7,7.7-5.6,14.4-5.6c1.9,0,3.9,0.2,6.1,0.7
		c2.2,0.4,4.1,0.9,5.6,1.5v12.7h-6.6c-3.8,0-5.7,1.9-5.7,5.7v6.6h12.3v14.8h-12.3V173h-18.1V118.2z M694.5,77.3h18.1V173h-18.1V77.3
		z M759.6,174.6c-11.9,0-20.8-3-26.6-8.9c-5.8-5.9-8.7-15.1-8.7-27.5s2.9-21.6,8.7-27.5c5.8-5.9,14.7-8.9,26.6-8.9s20.8,3,26.6,8.9
		c5.9,5.9,8.9,15.1,8.9,27.5s-3,21.6-8.9,27.5C780.4,171.7,771.5,174.6,759.6,174.6z M759.6,159.8c5.9,0,10.2-1.7,12.8-5
		c2.6-3.4,4-8.6,4-15.5v-2.1c0-6.9-1.3-12-4-15.4c-2.6-3.4-6.9-5.2-12.8-5.2s-10.2,1.7-12.8,5.2c-2.6,3.4-3.8,8.5-3.8,15.4v2.1
		c0,6.9,1.3,12,3.8,15.5C749.4,158.1,753.7,159.8,759.6,159.8z M798.1,103.4h18.7l7.5,28.6c0.5,2,1.3,5.5,2.3,10.3s1.6,8.1,1.9,9.7
		h0.5c0.3-1.5,0.8-4.2,1.6-8.2c0.9-4.1,1.8-7.9,2.6-11.6l7.1-28.7H859l7.5,28.9c0.7,2.6,1.5,6.2,2.5,10.7c1,4.5,1.6,7.5,1.9,9h0.5
		c0.3-1.3,0.8-4.1,1.7-8.5c0.9-4.4,1.7-8.2,2.5-11.3l7.1-28.9H900L879.3,173h-18.8l-7.9-33.2c-0.7-2.7-1.4-5.7-2-9
		c-0.6-3.3-1-5.4-1.2-6.4h-0.7c-0.1,1-0.4,3-0.9,6.2c-0.5,3.2-1.1,6.2-1.9,9l-8.3,33.4h-18.8L798.1,103.4z"/>
	<g>
		<g>
			<path class="st0" d="M235.3,88.6L162,15.1C141.8-5,108.8-5,88.6,15.1L15.1,88.6c-20.2,20.2-20.2,53.2,0,73.4l73.4,73.4
				c20.2,20.2,53.2,20.2,73.4,0l73.4-73.4C255.5,141.8,255.5,108.7,235.3,88.6z M191.3,158.3c0,18.2-14.8,33.1-33,33.1H92.2
				c-18.1,0-33-14.9-33-33.1V92.2c0-18.2,14.9-33.1,33-33.1h66.2c18.2,0,33,14.9,33,33.1V158.3L191.3,158.3z"/>
			
				<linearGradient id="SVGID_1_" gradientUnits="userSpaceOnUse" x1="136.2097" y1="-1677.5142" x2="223.9789" y2="-1667.4587" gradientTransform="matrix(1 0 0 -1 0 -1547.3784)">
				<stop  offset="0" style="stop-color:#E42A2D"/>
				<stop  offset="1" style="stop-color:#F5B435"/>
			</linearGradient>
			<path class="st1" d="M180.2,173.9c26.9,0,48.8-21.8,48.8-48.8c0-26.9-21.8-48.8-48.8-48.8c-26.9,0-48.8,21.8-48.8,48.8
				C131.4,152,153.2,173.9,180.2,173.9z"/>
		</g>
	</g>
</g>
</svg>
