<?xml version="1.0" encoding="utf-8"?>
<!-- Generator: Adobe Illustrator 27.8.1, SVG Export Plug-In . SVG Version: 6.00 Build 0)  -->
<svg version="1.1" id="Layer_1" xmlns="http://www.w3.org/2000/svg" xmlns:xlink="http://www.w3.org/1999/xlink" x="0px" y="0px"
	 viewBox="0 0 600 600" style="enable-background:new 0 0 600 600;" xml:space="preserve">
<style type="text/css">
	.st0{fill:#231F20;}
	.st1{fill:url(#SVGID_1_);}
</style>
<g>
	<g>
		<path class="st0" d="M563.7,212.1L388,36.3c-48.4-48.4-127.4-48.4-175.8,0L36.3,212.1c-48.4,48.4-48.4,127.4,0,175.7l175.9,175.9
			c48.4,48.4,127.4,48.4,175.8,0l175.8-175.9C612.1,339.6,612.1,260.5,563.7,212.1z M458.3,379.2c0,43.5-35.5,79.3-79,79.3H220.8
			c-43.4,0-79-35.6-79-79.3V220.9c0-43.5,35.6-79.3,79-79.3h158.5c43.5,0,79,35.6,79,79.3V379.2L458.3,379.2z"/>
		
			<linearGradient id="SVGID_1_" gradientUnits="userSpaceOnUse" x1="326.2858" y1="640.5413" x2="536.5341" y2="664.6287" gradientTransform="matrix(1 0 0 -1 0 952.2771)">
			<stop  offset="0" style="stop-color:#E42A2D"/>
			<stop  offset="1" style="stop-color:#F5B435"/>
		</linearGradient>
		<path class="st1" d="M431.6,416.5c64.5,0,116.8-52.3,116.8-116.8c0-64.5-52.3-116.8-116.8-116.8c-64.5,0-116.8,52.3-116.8,116.8
			C314.8,364.2,367.1,416.5,431.6,416.5z"/>
	</g>
</g>
</svg>
